<svg aria-hidden="true" focusable="false" data-prefix="fad" data-icon="info-square" class="svg-inline--fa fa-info-square fa-w-14" role="img" xmlns="http://www.w3.org/2000/svg" viewBox="0 0 448 512"><g class="fa-group"><path class="fa-secondary" fill="currentColor" d="M400 32H48A48 48 0 0 0 0 80v352a48 48 0 0 0 48 48h352a48 48 0 0 0 48-48V80a48 48 0 0 0-48-48zm-176 86a42 42 0 1 1-42 42 42 42 0 0 1 42-42zm56 254a12 12 0 0 1-12 12h-88a12 12 0 0 1-12-12v-24a12 12 0 0 1 12-12h12v-64h-12a12 12 0 0 1-12-12v-24a12 12 0 0 1 12-12h64a12 12 0 0 1 12 12v100h12a12 12 0 0 1 12 12z" opacity="0.4"></path><path class="fa-primary" fill="currentColor" d="M224 202a42 42 0 1 0-42-42 42 42 0 0 0 42 42zm44 134h-12V236a12 12 0 0 0-12-12h-64a12 12 0 0 0-12 12v24a12 12 0 0 0 12 12h12v64h-12a12 12 0 0 0-12 12v24a12 12 0 0 0 12 12h88a12 12 0 0 0 12-12v-24a12 12 0 0 0-12-12z"></path></g></svg>