<svg aria-hidden="true" focusable="false" data-prefix="fad" data-icon="chevron-square-right" class="svg-inline--fa fa-chevron-square-right fa-w-14" role="img" xmlns="http://www.w3.org/2000/svg" viewBox="0 0 448 512"><g class="fa-group"><path class="fa-secondary" fill="currentColor" d="M400 32H48A48 48 0 0 0 0 80v352a48 48 0 0 0 48 48h352a48 48 0 0 0 48-48V80a48 48 0 0 0-48-48zm-70.06 241L194.43 408.48a24 24 0 0 1-33.94 0l-17-17a24 24 0 0 1 0-33.94L245.09 256 143.52 154.43a24 24 0 0 1 0-33.94l17-17a24 24 0 0 1 33.94 0L329.94 239a24 24 0 0 1 0 34z" opacity="0.4"></path><path class="fa-primary" fill="currentColor" d="M143.52 154.43a24 24 0 0 1 0-33.94l17-17a24 24 0 0 1 33.94 0L329.94 239a24 24 0 0 1 0 33.94L194.43 408.48a24 24 0 0 1-33.94 0l-17-17a24 24 0 0 1 0-33.94L245.09 256z"></path></g></svg>