<?xml version="1.0" encoding="UTF-8" standalone="no"?>
<svg
   xmlns:dc="http://purl.org/dc/elements/1.1/"
   xmlns:cc="http://creativecommons.org/ns#"
   xmlns:rdf="http://www.w3.org/1999/02/22-rdf-syntax-ns#"
   xmlns:svg="http://www.w3.org/2000/svg"
   xmlns="http://www.w3.org/2000/svg"
   xmlns:sodipodi="http://sodipodi.sourceforge.net/DTD/sodipodi-0.dtd"
   xmlns:inkscape="http://www.inkscape.org/namespaces/inkscape"
   aria-hidden="true"
   focusable="false"
   data-prefix="fad"
   data-icon="file-alt"
   class="svg-inline--fa fa-file-alt fa-w-12"
   role="img"
   viewBox="0 0 384 512"
   version="1.1"
   id="svg8"
   sodipodi:docname="file-alt-duotone.svg"
   inkscape:version="0.92.3 (2405546, 2018-03-11)">
  <metadata
     id="metadata14">
    <rdf:RDF>
      <cc:Work
         rdf:about="">
        <dc:format>image/svg+xml</dc:format>
        <dc:type
           rdf:resource="http://purl.org/dc/dcmitype/StillImage" />
      </cc:Work>
    </rdf:RDF>
  </metadata>
  <defs
     id="defs12" />
  <sodipodi:namedview
     pagecolor="#ffffff"
     bordercolor="#666666"
     borderopacity="1"
     objecttolerance="10"
     gridtolerance="10"
     guidetolerance="10"
     inkscape:pageopacity="0"
     inkscape:pageshadow="2"
     inkscape:window-width="4800"
     inkscape:window-height="2569"
     id="namedview10"
     showgrid="false"
     inkscape:zoom="0.4609375"
     inkscape:cx="192"
     inkscape:cy="256"
     inkscape:window-x="-16"
     inkscape:window-y="-16"
     inkscape:window-maximized="1"
     inkscape:current-layer="svg8" />
  <g
     class="fa-group"
     id="g6"
     style="fill:#ff9800;fill-opacity:1"
     inkscape:export-filename="C:\Users\Jo\Documents\My Projects\DDS Help1\Content\Resources\Images\note.png"
     inkscape:export-xdpi="11.249997"
     inkscape:export-ydpi="11.249997">
    <path
       class="fa-secondary"
       fill="currentColor"
       d="M384 128H272a16 16 0 0 1-16-16V0H24A23.94 23.94 0 0 0 0 23.88V488a23.94 23.94 0 0 0 23.88 24H360a23.94 23.94 0 0 0 24-23.88V128zm-96 244a12 12 0 0 1-12 12H108a12 12 0 0 1-12-12v-8a12 12 0 0 1 12-12h168a12 12 0 0 1 12 12zm0-64a12 12 0 0 1-12 12H108a12 12 0 0 1-12-12v-8a12 12 0 0 1 12-12h168a12 12 0 0 1 12 12zm0-64a12 12 0 0 1-12 12H108a12 12 0 0 1-12-12v-8a12 12 0 0 1 12-12h168a12 12 0 0 1 12 12z"
       opacity="0.4"
       id="path2"
       style="fill:#ff9800;fill-opacity:1" />
    <path
       class="fa-primary"
       fill="currentColor"
       d="M377 105L279.1 7a24 24 0 0 0-17-7H256v112a16 16 0 0 0 16 16h112v-6.1a23.9 23.9 0 0 0-7-16.9zM276 352H108a12 12 0 0 0-12 12v8a12 12 0 0 0 12 12h168a12 12 0 0 0 12-12v-8a12 12 0 0 0-12-12zm0-64H108a12 12 0 0 0-12 12v8a12 12 0 0 0 12 12h168a12 12 0 0 0 12-12v-8a12 12 0 0 0-12-12zm0-64H108a12 12 0 0 0-12 12v8a12 12 0 0 0 12 12h168a12 12 0 0 0 12-12v-8a12 12 0 0 0-12-12z"
       id="path4"
       style="fill:#ff9800;fill-opacity:1" />
  </g>
</svg>
