<?xml version="1.0" encoding="UTF-8" standalone="no"?>
<svg
   xmlns:dc="http://purl.org/dc/elements/1.1/"
   xmlns:cc="http://creativecommons.org/ns#"
   xmlns:rdf="http://www.w3.org/1999/02/22-rdf-syntax-ns#"
   xmlns:svg="http://www.w3.org/2000/svg"
   xmlns="http://www.w3.org/2000/svg"
   xmlns:sodipodi="http://sodipodi.sourceforge.net/DTD/sodipodi-0.dtd"
   xmlns:inkscape="http://www.inkscape.org/namespaces/inkscape"
   aria-hidden="true"
   focusable="false"
   data-prefix="fad"
   data-icon="info-circle"
   class="svg-inline--fa fa-info-circle fa-w-16"
   role="img"
   viewBox="0 0 512 512"
   version="1.1"
   id="svg8"
   sodipodi:docname="info-circle-duotone.svg"
   inkscape:version="0.92.3 (2405546, 2018-03-11)">
  <metadata
     id="metadata14">
    <rdf:RDF>
      <cc:Work
         rdf:about="">
        <dc:format>image/svg+xml</dc:format>
        <dc:type
           rdf:resource="http://purl.org/dc/dcmitype/StillImage" />
      </cc:Work>
    </rdf:RDF>
  </metadata>
  <defs
     id="defs12" />
  <sodipodi:namedview
     pagecolor="#ffffff"
     bordercolor="#666666"
     borderopacity="1"
     objecttolerance="10"
     gridtolerance="10"
     guidetolerance="10"
     inkscape:pageopacity="0"
     inkscape:pageshadow="2"
     inkscape:window-width="4800"
     inkscape:window-height="2569"
     id="namedview10"
     showgrid="false"
     inkscape:zoom="0.4609375"
     inkscape:cx="256"
     inkscape:cy="256"
     inkscape:window-x="-16"
     inkscape:window-y="-16"
     inkscape:window-maximized="1"
     inkscape:current-layer="svg8" />
  <g
     class="fa-group"
     id="g6"
     style="fill:#ff9800;fill-opacity:1"
     inkscape:export-filename="C:\Users\Jo\Documents\My Projects\DDS Help1\Content\Resources\Images\info_circle.png"
     inkscape:export-xdpi="8.7096777"
     inkscape:export-ydpi="8.7096777">
    <path
       class="fa-secondary"
       fill="currentColor"
       d="M256 8C119 8 8 119.08 8 256s111 248 248 248 248-111 248-248S393 8 256 8zm0 110a42 42 0 1 1-42 42 42 42 0 0 1 42-42zm56 254a12 12 0 0 1-12 12h-88a12 12 0 0 1-12-12v-24a12 12 0 0 1 12-12h12v-64h-12a12 12 0 0 1-12-12v-24a12 12 0 0 1 12-12h64a12 12 0 0 1 12 12v100h12a12 12 0 0 1 12 12z"
       opacity="0.4"
       id="path2"
       style="fill:#ff9800;fill-opacity:1" />
    <path
       class="fa-primary"
       fill="currentColor"
       d="M256 202a42 42 0 1 0-42-42 42 42 0 0 0 42 42zm44 134h-12V236a12 12 0 0 0-12-12h-64a12 12 0 0 0-12 12v24a12 12 0 0 0 12 12h12v64h-12a12 12 0 0 0-12 12v24a12 12 0 0 0 12 12h88a12 12 0 0 0 12-12v-24a12 12 0 0 0-12-12z"
       id="path4"
       style="fill:#ff9800;fill-opacity:1" />
  </g>
</svg>
