<?xml version="1.0" encoding="UTF-8" standalone="no"?>
<svg
   xmlns:dc="http://purl.org/dc/elements/1.1/"
   xmlns:cc="http://creativecommons.org/ns#"
   xmlns:rdf="http://www.w3.org/1999/02/22-rdf-syntax-ns#"
   xmlns:svg="http://www.w3.org/2000/svg"
   xmlns="http://www.w3.org/2000/svg"
   xmlns:sodipodi="http://sodipodi.sourceforge.net/DTD/sodipodi-0.dtd"
   xmlns:inkscape="http://www.inkscape.org/namespaces/inkscape"
   aria-hidden="true"
   focusable="false"
   data-prefix="fad"
   data-icon="lightbulb"
   class="svg-inline--fa fa-lightbulb fa-w-11"
   role="img"
   viewBox="0 0 352 512"
   version="1.1"
   id="svg8"
   sodipodi:docname="lightbulb-duotone.svg"
   inkscape:version="0.92.3 (2405546, 2018-03-11)">
  <metadata
     id="metadata14">
    <rdf:RDF>
      <cc:Work
         rdf:about="">
        <dc:format>image/svg+xml</dc:format>
        <dc:type
           rdf:resource="http://purl.org/dc/dcmitype/StillImage" />
      </cc:Work>
    </rdf:RDF>
  </metadata>
  <defs
     id="defs12" />
  <sodipodi:namedview
     pagecolor="#ffffff"
     bordercolor="#666666"
     borderopacity="1"
     objecttolerance="10"
     gridtolerance="10"
     guidetolerance="10"
     inkscape:pageopacity="0"
     inkscape:pageshadow="2"
     inkscape:window-width="4800"
     inkscape:window-height="2569"
     id="namedview10"
     showgrid="false"
     inkscape:zoom="0.4609375"
     inkscape:cx="176"
     inkscape:cy="256"
     inkscape:window-x="-16"
     inkscape:window-y="-16"
     inkscape:window-maximized="1"
     inkscape:current-layer="svg8" />
  <g
     class="fa-group"
     id="g6"
     style="fill:#ff9800;fill-opacity:1"
     inkscape:export-filename="C:\Users\Jo\Documents\My Projects\DDS Help1\Content\Resources\Images\tip.png"
     inkscape:export-xdpi="12.187471"
     inkscape:export-ydpi="12.187471">
    <path
       class="fa-secondary"
       fill="currentColor"
       d="M175.45 0C73.44.31 0 83 0 176a175 175 0 0 0 43.56 115.78c16.52 18.85 42.36 58.22 52.21 91.45 0 .26.07.52.11.78h160.24c0-.26.07-.51.11-.78 9.85-33.22 35.69-72.6 52.21-91.45A175.9 175.9 0 0 0 175.45 0zm.55 96a80.09 80.09 0 0 0-80 80 16 16 0 0 1-32 0A112.12 112.12 0 0 1 176 64a16 16 0 0 1 0 32z"
       opacity="0.4"
       id="path2"
       style="fill:#ff9800;fill-opacity:1" />
    <path
       class="fa-primary"
       fill="currentColor"
       d="M96.06 454.35L96 416h160v38.35a32 32 0 0 1-5.41 17.65l-17.09 25.73A32 32 0 0 1 206.86 512h-61.71a32 32 0 0 1-26.64-14.28L101.42 472a32 32 0 0 1-5.36-17.65z"
       id="path4"
       style="fill:#ff9800;fill-opacity:1" />
  </g>
</svg>
