<?xml version="1.0" encoding="UTF-8" standalone="no"?>
<svg
   xmlns:dc="http://purl.org/dc/elements/1.1/"
   xmlns:cc="http://creativecommons.org/ns#"
   xmlns:rdf="http://www.w3.org/1999/02/22-rdf-syntax-ns#"
   xmlns:svg="http://www.w3.org/2000/svg"
   xmlns="http://www.w3.org/2000/svg"
   xmlns:sodipodi="http://sodipodi.sourceforge.net/DTD/sodipodi-0.dtd"
   xmlns:inkscape="http://www.inkscape.org/namespaces/inkscape"
   aria-hidden="true"
   focusable="false"
   data-prefix="fas"
   data-icon="lightbulb-on"
   class="svg-inline--fa fa-lightbulb-on fa-w-20"
   role="img"
   viewBox="0 0 640 512"
   version="1.1"
   id="svg827"
   sodipodi:docname="lightbulb-on-solid.svg"
   inkscape:version="0.92.3 (2405546, 2018-03-11)">
  <metadata
     id="metadata833">
    <rdf:RDF>
      <cc:Work
         rdf:about="">
        <dc:format>image/svg+xml</dc:format>
        <dc:type
           rdf:resource="http://purl.org/dc/dcmitype/StillImage" />
        <dc:title></dc:title>
      </cc:Work>
    </rdf:RDF>
  </metadata>
  <defs
     id="defs831" />
  <sodipodi:namedview
     pagecolor="#ffffff"
     bordercolor="#666666"
     borderopacity="1"
     objecttolerance="10"
     gridtolerance="10"
     guidetolerance="10"
     inkscape:pageopacity="0"
     inkscape:pageshadow="2"
     inkscape:window-width="4800"
     inkscape:window-height="2569"
     id="namedview829"
     showgrid="false"
     inkscape:zoom="4.3789062"
     inkscape:cx="319.77163"
     inkscape:cy="256"
     inkscape:window-x="-16"
     inkscape:window-y="-16"
     inkscape:window-maximized="1"
     inkscape:current-layer="svg827" />
  <path
     fill="currentColor"
     d="M240.06,454.34A32,32,0,0,0,245.42,472l17.1,25.69c5.23,7.91,17.17,14.28,26.64,14.28h61.7c9.47,0,21.41-6.37,26.64-14.28L394.59,472A37.47,37.47,0,0,0,400,454.34L400,416H240ZM319.45,0C217.44.31,144,83,144,176a175,175,0,0,0,43.56,115.78c16.52,18.85,42.36,58.22,52.21,91.44,0,.28.07.53.11.78H400.12c0-.25.07-.5.11-.78,9.85-33.22,35.69-72.59,52.21-91.44A175,175,0,0,0,496,176C496,78.63,416.91-.31,319.45,0ZM320,96a80.09,80.09,0,0,0-80,80,16,16,0,0,1-32,0A112.12,112.12,0,0,1,320,64a16,16,0,0,1,0,32ZM112,192a24,24,0,0,0-24-24H24a24,24,0,0,0,0,48H88A24,24,0,0,0,112,192Zm504-24H552a24,24,0,0,0,0,48h64a24,24,0,0,0,0-48ZM131.08,55.22l-55.42-32a24,24,0,1,0-24,41.56l55.42,32a24,24,0,1,0,24-41.56Zm457.26,264-55.42-32a24,24,0,1,0-24,41.56l55.42,32a24,24,0,0,0,24-41.56Zm-481.26-32-55.42,32a24,24,0,1,0,24,41.56l55.42-32a24,24,0,0,0-24-41.56ZM520.94,100a23.8,23.8,0,0,0,12-3.22l55.42-32a24,24,0,0,0-24-41.56l-55.42,32a24,24,0,0,0,12,44.78Z"
     id="path825"
     style="fill:#ff9800;fill-opacity:1"
     inkscape:export-filename="C:\Users\Jo\Documents\My Projects\DDS Help1\Content\Resources\Images\lightbulb.png"
     inkscape:export-xdpi="6.9378939"
     inkscape:export-ydpi="6.9378939" />
</svg>
