<?xml version="1.0" encoding="UTF-8" standalone="no"?>
<svg
   xmlns:dc="http://purl.org/dc/elements/1.1/"
   xmlns:cc="http://creativecommons.org/ns#"
   xmlns:rdf="http://www.w3.org/1999/02/22-rdf-syntax-ns#"
   xmlns:svg="http://www.w3.org/2000/svg"
   xmlns="http://www.w3.org/2000/svg"
   xmlns:sodipodi="http://sodipodi.sourceforge.net/DTD/sodipodi-0.dtd"
   xmlns:inkscape="http://www.inkscape.org/namespaces/inkscape"
   aria-hidden="true"
   focusable="false"
   data-prefix="fad"
   data-icon="pencil"
   class="svg-inline--fa fa-pencil fa-w-16"
   role="img"
   viewBox="0 0 512 512"
   version="1.1"
   id="svg8"
   sodipodi:docname="pencil-duotone.svg"
   inkscape:version="0.92.3 (2405546, 2018-03-11)">
  <metadata
     id="metadata14">
    <rdf:RDF>
      <cc:Work
         rdf:about="">
        <dc:format>image/svg+xml</dc:format>
        <dc:type
           rdf:resource="http://purl.org/dc/dcmitype/StillImage" />
      </cc:Work>
    </rdf:RDF>
  </metadata>
  <defs
     id="defs12" />
  <sodipodi:namedview
     pagecolor="#ffffff"
     bordercolor="#666666"
     borderopacity="1"
     objecttolerance="10"
     gridtolerance="10"
     guidetolerance="10"
     inkscape:pageopacity="0"
     inkscape:pageshadow="2"
     inkscape:window-width="4800"
     inkscape:window-height="2569"
     id="namedview10"
     showgrid="false"
     inkscape:zoom="0.4609375"
     inkscape:cx="256"
     inkscape:cy="256"
     inkscape:window-x="-16"
     inkscape:window-y="-16"
     inkscape:window-maximized="1"
     inkscape:current-layer="svg8" />
  <g
     class="fa-group"
     id="g6"
     style="fill:#ff9800;fill-opacity:1"
     inkscape:export-filename="C:\Users\Jo\Documents\My Projects\DDS Help1\Content\Resources\Images\note.png"
     inkscape:export-xdpi="8.4368305"
     inkscape:export-ydpi="8.4368305">
    <path
       class="fa-secondary"
       fill="currentColor"
       d="M96 352H32l-16 64 80 80 64-16v-64H96zM498 74.26l-.11-.11L437.77 14a48.09 48.09 0 0 0-67.9 0l-46.1 46.1a12 12 0 0 0 0 17l111 111a12 12 0 0 0 17 0l46.1-46.1a47.93 47.93 0 0 0 .13-67.74z"
       opacity="0.4"
       id="path2"
       style="fill:#ff9800;fill-opacity:1" />
    <path
       class="fa-primary"
       fill="currentColor"
       d="M.37 483.85a24 24 0 0 0 19.47 27.8 24.27 24.27 0 0 0 8.33 0l67.32-16.16-79-79zM412.3 210.78l-111-111a12.13 12.13 0 0 0-17.1 0L32 352h64v64h64v64l252.27-252.25a12 12 0 0 0 .03-16.97z"
       id="path4"
       style="fill:#ff9800;fill-opacity:1" />
  </g>
</svg>
